<svg width="12" height="12" viewBox="0 0 12 12" fill="none" xmlns="http://www.w3.org/2000/svg">
<path d="M10.6601 5.75017C10.6123 4.83195 10.2929 3.94861 9.7425 3.21209C9.5748 3.3927 9.39554 3.56223 9.20584 3.71959C8.62304 4.20366 7.97179 4.59878 7.27325 4.89209C7.37067 5.09625 7.45992 5.294 7.53867 5.48067V5.48242C7.56089 5.53458 7.58228 5.58709 7.60284 5.63992C8.486 5.54075 9.417 5.57692 10.3194 5.69884C10.4396 5.71517 10.5528 5.73267 10.6601 5.75017V5.75017ZM5.1855 1.40434C5.75398 2.20535 6.27821 3.03688 6.75584 3.89517C7.46925 3.614 8.059 3.25934 8.53384 2.86442C8.69866 2.72858 8.85381 2.58142 8.99817 2.424C8.15874 1.71801 7.09668 1.33161 5.99984 1.33317C5.72686 1.33298 5.45438 1.3566 5.1855 1.40375V1.40434ZM1.48075 4.83142C1.87814 4.82139 2.27505 4.79746 2.67075 4.75967C3.62721 4.67412 4.5755 4.5138 5.50692 4.28017C5.02014 3.43446 4.49458 2.61167 3.93192 1.81442C3.33092 2.11215 2.80099 2.53566 2.37806 3.05621C1.95514 3.57677 1.64912 4.18219 1.48075 4.83142ZM2.37325 8.93692C2.59959 8.60617 2.89709 8.234 3.292 7.82917C4.14017 6.96 5.14117 6.28334 6.29967 5.91L6.33584 5.8995C6.23959 5.68717 6.14917 5.49759 6.05817 5.31909C4.98717 5.63117 3.859 5.826 2.73492 5.92692C2.18659 5.9765 1.69484 5.99809 1.33317 6.00159C1.33214 7.0706 1.69968 8.10729 2.37384 8.93692H2.37325ZM7.75275 10.3253C7.5278 9.19082 7.20938 8.07694 6.80075 6.995C5.63292 7.41909 4.7025 8.03917 3.98325 8.77884C3.69299 9.07189 3.4354 9.3956 3.215 9.74425C4.01931 10.3444 4.99632 10.6679 5.99984 10.6665C6.60062 10.6674 7.19588 10.5519 7.75275 10.3264V10.3253ZM8.84534 9.69817C9.75608 8.99803 10.3765 7.9865 10.5878 6.85734C10.3894 6.80775 10.138 6.75817 9.86151 6.71967C9.24675 6.63115 8.62296 6.62467 8.0065 6.70042C8.35362 7.67974 8.63388 8.68148 8.84534 9.69875V9.69817ZM5.99984 11.8332C2.77809 11.8332 0.166504 9.22159 0.166504 5.99984C0.166504 2.77809 2.77809 0.166504 5.99984 0.166504C9.22159 0.166504 11.8332 2.77809 11.8332 5.99984C11.8332 9.22159 9.22159 11.8332 5.99984 11.8332Z" fill="#2B2B2B"/>
</svg>
